PathFileType	4	(X/Y/Z)	s08c0403.trc
DataRate	CameraRate	NumFrames	NumMarkers	Units	OrigDataRate	OrigDataStartFrame	OrigNumFrames
200	200	4	50	mm	200	1750	2000
Frame#	Time	racr			lacr			c7			jug			rlel			rdr			llel			ldr			s2			lic			ric			lasi			rasi			rpsi			lpsi			rgt			lgt			rth1			rth2			rth3			rth4			rlfc			rmfc			rsh1			rsh2			rsh3			rsh4			rlmal			rmmal			rcal			rtoe			rmt5			lth1			lth2			lth4			lth3			llfc			lmfc			llmal			lmmal			lcal			lmt5			lsh1			lsh2			lsh3			lsh4			ltoe			SBIKE			LBIKE			RBIKE			
		X1	Y1	Z1	X2	Y2	Z2	X3	Y3	Z3	X4	Y4	Z4	X5	Y5	Z5	X6	Y6	Z6	X7	Y7	Z7	X8	Y8	Z8	X9	Y9	Z9	X10	Y10	Z10	X11	Y11	Z11	X12	Y12	Z12	X13	Y13	Z13	X14	Y14	Z14	X15	Y15	Z15	X16	Y16	Z16	X17	Y17	Z17	X18	Y18	Z18	X19	Y19	Z19	X20	Y20	Z20	X21	Y21	Z21	X22	Y22	Z22	X23	Y23	Z23	X24	Y24	Z24	X25	Y25	Z25	X26	Y26	Z26	X27	Y27	Z27	X28	Y28	Z28	X29	Y29	Z29	X30	Y30	Z30	X31	Y31	Z31	X32	Y32	Z32	X33	Y33	Z33	X34	Y34	Z34	X35	Y35	Z35	X36	Y36	Z36	X37	Y37	Z37	X38	Y38	Z38	X39	Y39	Z39	X40	Y40	Z40	X41	Y41	Z41	X42	Y42	Z42	X43	Y43	Z43	X44	Y44	Z44	X45	Y45	Z45	X46	Y46	Z46	X47	Y47	Z47	X48	Y48	Z48	X49	Y49	Z49	X50	Y50	Z50	
1750	8.7500	785.330258	1398.151032	-146.238286	755.861578	1357.549353	-466.086611	759.469635	1426.833488	-308.934981	704.787324	1275.825566	-290.664735	684.916529	1188.909748	27.282162	754.171544	922.676499	-65.198826	622.360479	1128.443068	-597.123165	743.029052	928.810675	-455.584025	181.061781	1264.336227	-216.258823	317.737624	1235.839898	-385.825370	363.766942	1258.695928	-72.765879	348.572293	1196.824868	-342.275274	370.109757	1189.671918	-106.908908	224.964771	1301.558077	-169.571244	214.329316	1302.856452	-264.286603	272.954276	1144.583947	-28.494674	258.102631	1134.351094	-404.776717	364.762207	995.044860	-28.343560	421.134859	926.855643	-36.854554	436.158424	841.453955	-41.635701	451.400309	942.004624	-50.838261	463.781558	729.533911	-56.135140	437.725346	725.311298	-166.111972	350.186602	662.275166	-23.924217	300.530970	590.160474	-44.814620	223.331360	552.288233	-49.430304	321.682138	572.655165	-74.761214	126.238831	482.395736	-56.742948	153.709098	482.358347	-143.423635	67.468488	533.116569	-106.892282	190.429812	259.401906	-105.639999	123.588692	327.677997	-39.279293	330.579331	1018.206137	-412.600518	397.120664	961.820656	-411.172296	426.828371	981.869523	-402.156445	425.959265	877.784842	-410.746584	478.142322	759.125880	-388.858408	477.506597	730.994647	-284.904870	317.928763	368.674231	-398.766044	359.337092	394.737815	-327.512146	243.038507	349.628599	-361.674548	444.043385	276.571195	-423.950156	432.262831	637.657000	-415.275707	419.018126	555.404403	-402.222062	367.602866	482.969341	-403.405707	439.615287	548.992864	-366.221641	528.153939	300.645573	-355.807733	-199.218610	921.514877	-229.594311	-8.835843	80.193110	-426.919161	-8.826567	80.494444	-28.553773	
1751	8.7550	783.363965	1399.536469	-143.918145	755.382013	1359.223355	-464.368810	758.240663	1428.364201	-306.983330	703.509181	1277.325996	-289.130388	683.978338	1188.872984	28.204559	754.104424	922.841230	-65.584591	622.483497	1129.710598	-595.294694	744.057570	928.883485	-455.337930	179.644222	1262.979503	-217.542832	317.806584	1234.541804	-386.750185	361.729870	1258.772077	-73.709219	347.876896	1194.387930	-343.530149	368.408124	1189.925039	-107.501422	222.473979	1300.730621	-170.673836	212.675361	1301.207078	-265.607353	271.736417	1144.710813	-28.798531	256.143158	1130.459347	-404.903048	365.650090	996.503298	-28.088820	423.631064	929.783962	-36.919569	440.753584	844.659794	-42.418426	453.375043	945.571951	-51.276925	470.612394	734.185233	-57.913652	444.064961	729.801768	-167.693234	356.720488	668.380701	-25.064378	305.811819	597.128602	-45.918327	228.046960	560.412612	-50.310357	326.448722	579.372736	-76.058764	129.883983	492.653511	-56.782409	156.939766	492.478137	-143.804143	70.281029	543.396329	-107.458206	192.747656	269.544722	-105.621541	126.389793	338.071721	-39.385049	326.755320	1012.745691	-412.800575	391.942316	954.752767	-411.351843	422.149630	974.099419	-402.691224	418.670987	869.953781	-410.215530	469.135185	751.768821	-388.288422	467.866593	724.163658	-284.834884	315.671005	358.965379	-399.196341	357.023199	385.258915	-327.853642	241.176504	340.600037	-361.859305	441.693651	265.786972	-423.732104	425.245437	629.470383	-414.971538	413.650447	546.977143	-401.823002	363.714468	473.523138	-403.283161	433.815578	541.332358	-365.672280	525.918614	289.261431	-355.555638	-199.252174	921.449944	-229.847597	-8.835240	80.219025	-426.930052	-8.776721	80.450994	-28.563457	
1752	8.7600	781.396311	1400.831104	-141.641787	754.950807	1360.877174	-462.378784	756.998280	1429.690010	-304.901564	702.436753	1278.548511	-287.421618	683.037361	1188.740202	29.164225	753.995090	922.917639	-66.109667	622.734493	1131.034276	-593.358886	744.632545	928.776321	-455.737120	178.193261	1261.765073	-218.985967	317.939439	1233.128295	-387.666950	359.603347	1258.926707	-74.653749	347.201553	1191.637640	-344.861734	366.843273	1190.096294	-107.764771	220.209647	1300.596762	-172.239766	211.146910	1299.893993	-267.084121	269.606801	1144.808506	-29.718961	254.315086	1126.650052	-405.161182	366.141189	997.889123	-27.908785	425.733680	932.609296	-37.102387	444.110181	847.913251	-42.976137	455.411681	949.230504	-51.255884	477.373849	739.091312	-59.700450	450.479483	734.563768	-169.392094	362.868515	675.135393	-27.185030	311.224007	604.309987	-46.944947	232.715253	568.713705	-50.818311	331.353968	586.239458	-77.312333	133.029051	502.804196	-57.373451	160.482333	502.163373	-144.787710	73.586402	553.812212	-107.767881	196.132487	279.855727	-105.887419	129.853492	348.403733	-39.626486	322.874683	1007.341021	-413.125152	386.507669	947.669457	-411.575096	417.228135	966.373764	-403.355095	411.151717	862.297902	-409.690840	459.397267	744.524034	-388.154111	457.551757	717.437093	-284.950932	312.912350	349.533653	-399.218742	353.238013	375.940408	-327.290204	238.826625	331.975944	-361.848767	438.661764	255.334881	-423.520522	417.633651	621.781582	-414.642522	407.602179	537.926312	-399.385781	359.075767	464.490225	-403.088463	427.526487	533.810105	-365.183516	523.127873	277.932145	-355.320670	-199.190780	921.511917	-229.729157	-8.807334	80.216653	-426.926116	-8.795285	80.500252	-28.568907	
1753	8.7650	779.490845	1401.908929	-139.305613	754.486789	1362.495342	-460.528229	755.877727	1430.862138	-302.649625	701.253949	1279.697849	-285.581241	682.086161	1188.585650	30.103228	754.060847	923.026343	-66.132678	623.039827	1132.349671	-591.420661	745.253234	928.615041	-456.102550	176.769865	1260.579554	-220.632059	318.136033	1231.596107	-388.571671	357.383900	1259.201105	-75.657939	346.360637	1188.839606	-346.195280	364.607453	1190.223689	-108.572229	218.149647	1299.652969	-174.129093	209.819829	1298.345739	-268.769194	268.447185	1145.326901	-29.893313	252.563274	1123.041313	-405.404671	366.138274	999.195676	-27.950743	427.470588	935.548529	-37.238065	448.296138	851.513081	-43.256566	456.457542	952.854272	-52.382704	484.366048	744.320382	-61.380225	462.569006	738.074681	-168.576483	369.478264	681.397881	-28.259655	317.154107	611.472716	-47.714653	237.440107	577.103617	-51.733167	336.236983	593.193005	-78.623301	136.484821	512.880496	-58.112622	164.067751	512.121871	-145.442571	76.815864	563.775089	-108.031659	200.252084	290.295175	-106.169365	133.823945	358.659166	-39.815163	318.906598	1002.196964	-413.597132	380.851907	940.707397	-411.847817	411.943149	958.686970	-404.507051	403.220778	854.690888	-409.030334	449.548434	737.410845	-387.934431	447.123981	710.585761	-285.330326	309.393345	340.628718	-399.233785	349.991365	366.920620	-327.415207	236.074540	323.744343	-361.702730	435.054957	244.953200	-423.246576	409.220294	614.296436	-414.416151	400.919135	530.084443	-399.248367	353.666559	456.009847	-402.957525	420.694095	526.574804	-364.907297	519.762966	266.752610	-355.147210	-199.233108	921.337909	-230.083358	-8.798422	80.220112	-426.933472	-8.779276	80.490235	-28.589172	
